<svg id="Capa_1" enable-background="new 0 0 512 512" height="512" viewBox="0 0 512 512" width="512" xmlns="http://www.w3.org/2000/svg"><g><path d="m271.274 512h-136.274c-33.084 0-60-26.916-60-60v-392c0-33.084 26.916-60 60-60h127.328c82.861 0 150.273 67.413 150.273 150.274 0 28.659-7.942 56.046-23.089 79.978 30.331 30.906 47.488 72.481 47.488 116.022 0 91.382-74.344 165.726-165.726 165.726zm-136.274-482c-16.542 0-30 13.458-30 30v392c0 16.542 13.458 30 30 30h136.274c74.839 0 135.726-60.887 135.726-135.726 0-39.356-17.133-76.762-47.007-102.626-5.997-5.192-6.915-14.155-2.095-20.455 16.161-21.125 24.704-46.34 24.704-72.919 0-66.319-53.955-120.274-120.274-120.274zm136.274 392h-91.274c-8.284 0-15-6.716-15-15v-121.452c0-8.284 6.716-15 15-15h91.274c41.755 0 75.726 33.971 75.726 75.726s-33.971 75.726-75.726 75.726zm-76.274-30h76.274c25.213 0 45.726-20.513 45.726-45.726s-20.513-45.726-45.726-45.726h-76.274zm67.328-181.452h-82.328c-8.284 0-15-6.716-15-15v-90.548c0-8.284 6.716-15 15-15h82.328c33.235 0 60.273 27.039 60.273 60.274s-27.038 60.274-60.273 60.274zm-67.328-30h67.328c16.693 0 30.273-13.581 30.273-30.274s-13.581-30.274-30.273-30.274h-67.328z"/></g></svg>